<svg width="256" height="256" viewBox="0 0 256 256" fill="none" xmlns="http://www.w3.org/2000/svg">
    <path fill-rule="evenodd" clip-rule="evenodd"
        d="M163.008 167.417C164.952 165.004 165.943 161.747 167.925 155.236L211.234 12.9659C194.966 21.4072 177.506 27.3185 159.456 30.4959L131.258 125.786C131.033 126.546 130.569 127.213 129.933 127.687C129.298 128.161 128.526 128.417 127.733 128.416C126.941 128.415 126.169 128.157 125.535 127.681C124.901 127.205 124.439 126.537 124.216 125.776L96.359 30.5439C78.2276 27.3816 60.6875 21.4606 44.349 12.9869L87.869 155.268C89.859 161.77 90.852 165.02 92.796 167.428C94.5121 169.555 96.7444 171.207 99.28 172.226C102.152 173.38 105.551 173.38 112.35 173.38H143.435C150.242 173.38 153.646 173.38 156.521 172.223C159.059 171.202 161.292 169.547 163.008 167.417Z"
        fill="#fff" />
    <path fill-rule="evenodd" clip-rule="evenodd"
        d="M168.19 180.151C161.051 186.256 146.8 190.419 130.386 190.419C110.239 190.419 93.353 184.147 88.873 175.712C87.271 180.547 86.912 186.079 86.912 189.614C86.912 189.614 85.856 206.969 97.927 219.04C97.927 212.772 103.008 207.691 109.276 207.691C120.019 207.691 120.007 217.064 119.997 224.668V225.347C119.997 236.889 127.051 246.783 137.083 250.953C135.539 247.775 134.739 244.287 134.744 240.753C134.744 229.745 141.207 225.646 148.718 220.883C154.694 217.093 161.334 212.882 165.91 204.434C168.374 199.884 169.661 194.789 169.653 189.614C169.653 186.315 169.14 183.135 168.19 180.151Z"
        fill="#C9591B" />
</svg>