<svg width="1200" height="630" fill="none" xmlns="http://www.w3.org/2000/svg"><path fill="#731E1E" d="M0 0h1200v630H0z"/><g clip-path="url(#prefix__clip0_401_2)"><path d="M533.384 267.92c-.085.341-.213.64-.384.896a6.91 6.91 0 01-.384.896c-.085.085-.128.171-.128.256 0 .085-.043.171-.128.256l-1.536 3.328-3.072 7.168a50.884 50.884 0 01-1.152 3.328l-1.28 3.072c-.683 1.621-1.28 2.816-1.792 3.584l-.896 1.92a299.278 299.278 0 01-4.096 10.88c-1.28 3.413-2.432 5.632-3.456 6.656l-.384 1.024a75.576 75.576 0 01-1.92 5.76c-.597 1.707-1.237 2.987-1.92 3.84-.171.341-.256.555-.256.64l-1.024 2.816a33.507 33.507 0 01-1.152 2.56l-1.536 4.096a30.254 30.254 0 01-1.664 3.712c-.171.341-.256.555-.256.64l-.768 1.536c-.853 2.133-1.664 3.925-2.432 5.376-.768 1.536-1.365 2.603-1.792 3.2-.341.683-.64 1.408-.896 2.176-.085.085-.128.171-.128.256 0 .085-.043.171-.128.256-.171.512-.341.896-.512 1.152-.085.341-.171.64-.256.896a3.206 3.206 0 01-.384.768 9.583 9.583 0 01-1.024 1.792c-.512.512-.896.853-1.152 1.024a11.775 11.775 0 00-.64 1.536 9.458 9.458 0 01-.384 1.664l-1.536 4.48c-.085.171-.171.469-.256.896-.085.427-.171.555-.256.384a19.41 19.41 0 01-.256-3.2 19.41 19.41 0 00-.256-3.2l-2.56 1.536a6.737 6.737 0 01-2.56 1.024c-.597.085-1.109-.043-1.536-.384l-1.024-1.024a5.4 5.4 0 01-1.024-1.408l-.256-.384h-.256a6.945 6.945 0 00-.256 1.92c.085.683 0 1.365-.256 2.048-.085.171-.171.043-.256-.384a3.983 3.983 0 00-.256-.768l-.384-2.56c-.256.768-.64 1.323-1.152 1.664-.171.171-.341.256-.512.256l-.256 1.28c0 .512-.085.981-.256 1.408-.085.085-.213 0-.384-.256a1.14 1.14 0 01-.128-.512l-.256-1.28c0-.427-.085-.811-.256-1.152l-.64-.64a4.211 4.211 0 01-.512-.64l-.64-.64c0 .341-.085.555-.256.64 0 .085-.341-.213-1.024-.896 0 .085-.043.128-.128.128v.128a56.062 56.062 0 00-.128 3.712c0 1.28-.085 2.56-.256 3.84a4.224 4.224 0 00-.128 1.024c0 .427-.128.768-.384 1.024-.085.085-.213 0-.384-.256a4.986 4.986 0 00-.256-.64l-.256-2.048-.256-1.792c-.085-.597-.043-1.451.128-2.56.171-1.109.043-2.005-.384-2.688l-.256-.256-.256-.256c-.085 0-.171-.043-.256-.128h-.384c-.512-.085-.853-.213-1.024-.384a2.294 2.294 0 01-.64-.64c-.171-.171-.341-.427-.512-.768 0-.085-.043-.171-.128-.256v-1.024c0-.341.043-.597.128-.768 0-.256.043-.427.128-.512l.512-1.536a8.99 8.99 0 00.64-1.28l.256-.64c.085-.171.128-.299.128-.384l.256-.256 2.304-5.76c.427-1.195.853-2.347 1.28-3.456.512-1.109.981-2.133 1.408-3.072l.512-1.28c.256-.427.469-.811.64-1.152l.256-.768 1.28-3.2v-.128c.085 0 .128-.043.128-.128l.512-1.152-.384-.896-.256-.512c-.597-.683-1.451-2.261-2.56-4.736a207.35 207.35 0 01-3.584-8.576 53.242 53.242 0 01-1.024-2.176c-.341-.768-.725-1.621-1.152-2.56-.597-.939-1.195-2.304-1.792-4.096a347.495 347.495 0 00-1.664-5.632l-7.168-16.896a44.597 44.597 0 00-.768-1.92l-.768-1.792a421.519 421.519 0 01-3.328-7.808c-.085-.085-.171-.341-.256-.768a2.848 2.848 0 01-.128-.896c0-.171.043-.299.128-.384 0-.427.128-.811.384-1.152.171-.256.384-.469.64-.64.512-.512 1.109-.811 1.792-.896a6.124 6.124 0 012.176-.128c.853.085 1.579.128 2.176.128h16.896c.341 0 .725.043 1.152.128h.768l.768.384c.427.085.768.299 1.024.64a5.381 5.381 0 011.408 2.432c.256.939.469 1.749.64 2.432.341.768.64 1.579.896 2.432a90.05 90.05 0 011.024 2.688c.171.427.341.939.512 1.536.256.512.469 1.067.64 1.664l1.024 2.944v.128l.512 1.28c0 .085.085.299.256.64l1.28 3.84 1.536 3.84 1.152 3.328v.256a.868.868 0 01.256.64c.171.085.213.171.128.256-.085.085.043.171.384.256.085-.085.128-.171.128-.256l.384-.768.384-1.28c.085-.171.128-.299.128-.384 0-.085.043-.171.128-.256l.384-1.024v-.128l1.92-5.12c.171-.341.256-.555.256-.64a54.462 54.462 0 011.408-3.968c.512-1.28.981-2.475 1.408-3.584.085-.085.128-.171.128-.256 0-.085.043-.171.128-.256l.64-1.664c.256-.853.512-1.664.768-2.432.341-.768.64-1.579.896-2.432l.384-.896.256-.768.256-.768c.256-.683.555-1.365.896-2.048a5.346 5.346 0 011.408-1.92c.939-.683 2.176-1.024 3.712-1.024.427 0 .896.043 1.408.128H530.696c.683 0 1.195.128 1.536.384.171.085.299.171.384.256l.256.256c.512.512.768 1.109.768 1.792v.896l-.128.128v.256l-.128.512zm76.452 26.752a32.928 32.928 0 010 4.096c0 1.365-.043 2.688-.128 3.968-.171 2.645-.555 5.12-1.152 7.424a24.552 24.552 0 01-2.56 6.144l-1.024 1.792a20.92 20.92 0 01-1.152 1.792c-.427.512-.896.981-1.408 1.408 0 .085-.043.171-.128.256a4.562 4.562 0 01-1.28 1.28 362296946387.375 362296946387.375 0 00-.64.64l-.256.256-.256.256-.768 1.664v1.024c0 .256-.043.555-.128.896-.085.597-.085 1.408 0 2.432.085.939-.085 1.237-.512.896a1.898 1.898 0 01-.512-.896v-1.152c0 .171-.085.341-.256.512-.085.256-.256.512-.512.768-.171.341-.427.555-.768.64-.597.256-1.109.043-1.536-.64a31.512 31.512 0 01-.768-1.408c0-.085-.043-.171-.128-.256-.597 1.109-.853 2.347-.768 3.712a23.074 23.074 0 01-.128 4.224c0 .341-.043.725-.128 1.152-.085.512-.171.981-.256 1.408a3.022 3.022 0 01-.64 1.408c0 .256-.171.384-.512.384-.341-.171-.512-.384-.512-.64a38.256 38.256 0 01-.256-4.48c0-1.536-.085-3.029-.256-4.48l-.128-.128h-.128a3.206 3.206 0 00-.768.384 4.211 4.211 0 00-.64.512c-.597.597-1.109 1.323-1.536 2.176l-.768 1.536a7.102 7.102 0 01-.64 1.408 3.85 3.85 0 00-.384.512c-.085.341-.128.469-.128.384a15.681 15.681 0 01-.256-2.816c0-.939-.085-1.835-.256-2.688.171 0-.085-.043-.768-.128-.597 0-.853.043-.768.128a32.928 32.928 0 00-.256 4.096c0 1.365-.085 2.731-.256 4.096 0 .085-.171.256-.512.512l-.512.512c-.085.085-.213.128-.384.128-.085.085-.128.085-.128 0a38.256 38.256 0 01-.256-4.48c0-1.451-.128-2.901-.384-4.352a1.601 1.601 0 00-.64.384l-.256.256a1.477 1.477 0 00-.256.384.868.868 0 01-.256.64c-.085 0-.299-.171-.64-.512l-.256-.512c0-.171-.085-.299-.256-.384 0-.085-.043-.128-.128-.128l-.128-.128c0 .085-.043.085-.128 0h-.768v1.024c0 .341-.085.725-.256 1.152l-1.024-1.152-.64-.64c0 .085-.128.085-.384 0-.341 0-.512-.043-.512-.128a629.908 629.908 0 01-.256 3.456c0 1.195-.085 2.389-.256 3.584 0 .171-.085.085-.256-.256a3.983 3.983 0 00-.256-.768l-.256-.768a4.986 4.986 0 01-.256-.64 45.88 45.88 0 01-.64-3.328 45.999 45.999 0 00-.384-3.2h-.768c-11.605-.256-20.352-2.944-26.24-8.064l-.768-.768c-5.035-4.779-7.808-11.349-8.32-19.712a94.347 94.347 0 010-12.032c.683-9.472 4.267-16.597 10.752-21.376 6.571-4.779 15.531-7.168 26.88-7.168h1.152c1.195 0 2.389.043 3.584.128 1.195.085 2.347.213 3.456.384.171 0 .299.043.384.128 8.789 1.28 15.829 4.608 21.12 9.984.171.171.384.469.64.896.341.341.555.597.64.768 2.389 3.157 4.011 6.699 4.864 10.624v.256c.085.085.128.171.128.256a26.09 26.09 0 01.64 4.608 81.12 81.12 0 01.128 4.48zm-40.704 15.232c.256.171.555.341.896.512.939.256 1.664.384 2.176.384.512 0 1.024-.043 1.536-.128h.768a6.91 6.91 0 01.896-.384c.341-.171.64-.341.896-.512a4.506 4.506 0 001.28-2.432c.256-.939.427-1.835.512-2.688.085-.512.128-1.067.128-1.664.085-.597.128-1.195.128-1.792.085-1.195.128-2.603.128-4.224s-.043-3.072-.128-4.352v-1.28c0-.427-.043-.811-.128-1.152 0-.341-.043-.64-.128-.896v-1.024c-.256-2.219-.853-3.712-1.792-4.48-.341-.341-.597-.512-.768-.512-.085-.085-.213-.128-.384-.128h-.256c-.085-.085-.171-.085-.256 0-.085.085-.171.299-.256.64a.868.868 0 01-.256.64c-.085.171-.341.299-.768.384-.341 0-.597-.043-.768-.128-.512-.085-.981-.341-1.408-.768h-.768l-.256-.256a.831.831 0 00-.384-.384c-.256 0-.512.128-.768.384-.597.512-1.024 1.237-1.28 2.176-.256.853-.469 1.877-.64 3.072-.085.256-.128.597-.128 1.024 0 .256-.043.555-.128.896v.896a20.003 20.003 0 00-.128 2.432v4.608c.085.512.128 1.067.128 1.664v1.792c0 .597.043 1.109.128 1.536.171 1.536.341 2.731.512 3.584.256.853.811 1.707 1.664 2.56zm123.853 21.376c-.085.683-.171 1.323-.256 1.92a8.4 8.4 0 01-.256 2.048l-.384 2.048a21.91 21.91 0 01-.896 2.816c-.341.939-.768 1.707-1.28 2.304a10.36 10.36 0 01-.896 1.664l-1.024 1.536a18.193 18.193 0 01-2.048 2.432l-1.536 1.536c-.085.085-.171.128-.256.128l-.256.256c-.341.341-.597.555-.768.64a4.534 4.534 0 00-.384 1.152 6.754 6.754 0 01-.384 1.408l-1.024 2.56a33.507 33.507 0 01-1.152 2.56 2.878 2.878 0 01-.512 1.024 4.027 4.027 0 01-.768 1.024c-.597.512-.896.725-.896.64.085 0 .213-.085.384-.256a1.14 1.14 0 01-.512.128c-.256.171-.512.512-.768 1.024s-.597.725-1.024.64c-.427-.085-.597-.213-.512-.384.171-.171.256-.299.256-.384.085-.085-.341-.085-1.28 0 .171-.171.043-.085-.384.256l-.512.512-.384.384c-.171.597-.171 1.323 0 2.176.256.853.085 1.365-.512 1.536-.597.085-.811-.341-.64-1.28.171-.939.128-1.749-.128-2.432-.085 0-.171-.043-.256-.128 0-.085-.043-.128-.128-.128v-.128c-.085-.085-.213-.299-.384-.64a10.36 10.36 0 01-.896-1.664 21.664 21.664 0 00-.64-1.664c0-.171-.085-.384-.256-.64-.171-.256-.256-.341-.256-.256 0-.085-.043-.128-.128-.128v-.128c-.171.341-.299.555-.384.64-.085.171-.256.256-.512.256a1.99 1.99 0 00-.512.384l-1.024.768c-.256.256-.597.469-1.024.64-.512.085-1.024 0-1.536-.256a5.113 5.113 0 01-1.28-.768 11.863 11.863 0 00-.128 1.664c0 .597-.085 1.195-.256 1.792-.085.085-.256.171-.512.256-.256.171-.469.213-.64.128a1.233 1.233 0 01-.64-.512 1.99 1.99 0 00-.384-.512c-.171-.256-.427-.725-.768-1.408a56.571 56.571 0 00-1.152-1.92h-.512c-.683 0-.768-.043-.256-.128.512 0 .469.128-.128.384-.597.512-1.195.299-1.792-.64-7.851-.171-14.251-1.451-19.2-3.84-4.949-2.304-8.789-4.907-11.52-7.808a1.99 1.99 0 01-.512-.384l-.64-.768-.128-.128a181.78 181.78 0 00-1.92-2.688 19.376 19.376 0 01-1.536-2.944l-.768-1.792a59.343 59.343 0 01-.512-1.92 4.261 4.261 0 01.128-1.792c.341-1.024.939-1.664 1.792-1.92a4.964 4.964 0 011.024-.384h.768a7.22 7.22 0 011.408-.128c.512.085.981.128 1.408.128h22.784c.256.085.597.256 1.024.512a4.35 4.35 0 011.664 2.048c.171.427.341.725.512.896.171.256.299.427.384.512a3.13 3.13 0 001.408 1.152h.128l.128.128c.768.341 1.707.512 2.816.512h.128c.427 0 .768-.043 1.024-.128 1.28-.256 2.219-.896 2.816-1.92.683-1.024 1.109-2.261 1.28-3.712.171-1.365.256-2.603.256-3.712v-6.528c-.341.341-.597.555-.768.64-.085 0-.128.043-.128.128l-1.792 1.92c-.427.512-.896 1.067-1.408 1.664l-1.536 1.536c-.683.853-1.621 1.707-2.816 2.56a7.679 7.679 0 01-3.456 1.664c-1.109.171-2.304.128-3.584-.128-1.28-.256-2.432-.597-3.456-1.024l-1.152-.64a2.425 2.425 0 00-.768-.128 4.986 4.986 0 00-.64-.256 10.03 10.03 0 00-1.536-.384 11.775 11.775 0 01-1.536-.64c-.085-.085-.171-.128-.256-.128-.085 0-.171-.043-.256-.128a4.964 4.964 0 01-1.024-.384 2.833 2.833 0 00-.896-.384 2.268 2.268 0 00-1.024-.256c-.341 0-.683-.043-1.024-.128-1.451-.683-2.688-1.579-3.712-2.688-.427-.597-.555-.811-.384-.64l-.384-.384c-.256-.256-.427-.384-.512-.384-.085.085-.128.299-.128.64s-.085.469-.256.384c-.171-.085-.256-.299-.256-.64a8.838 8.838 0 00-.256-1.024c-.085-.341-.299-.683-.64-1.024a1.99 1.99 0 01-.384-.512 4.823 4.823 0 01-1.408-1.536c-.512-.512-.853-.896-1.024-1.152l-.896-1.28c-1.707-2.901-3.029-6.528-3.968-10.88-.341-1.365-.597-3.115-.768-5.248a84.958 84.958 0 01-.256-6.528c0-2.219.085-3.925.256-5.12 0-.171.043-.299.128-.384.512-5.205 1.621-9.557 3.328-13.056 1.792-3.584 4.139-6.485 7.04-8.704.171-.171.299-.256.384-.256.341-.341.725-.64 1.152-.896a31.406 31.406 0 011.664-.768 1.99 1.99 0 01.512-.384l.768-.256 1.28-.512a7.24 7.24 0 011.28-.384c1.195-.427 2.517-.725 3.968-.896a85.925 85.925 0 014.48-.384h1.024c1.536 0 2.987.128 4.352.384 2.304.171 4.011.597 5.12 1.28.512.085.981.256 1.408.512.939.341 1.707.768 2.304 1.28a35.188 35.188 0 012.048 1.664c.768.512 1.237.896 1.408 1.152l.64.64c.256.171.811.597 1.664 1.28v-3.456c0-.683.213-1.323.64-1.92.085-.171.341-.469.768-.896.085-.085.299-.213.64-.384.512-.171.981-.256 1.408-.256h17.28c.683 0 1.579-.043 2.688-.128 1.195-.085 2.219-.043 3.072.128.085.085.256.128.512.128.853.341 1.493.896 1.92 1.664l.384 1.28c.171.853.213 1.749.128 2.688 0 .853-.043 1.664-.128 2.432v20.48c0 .256.043.555.128.896v29.184c.085 1.451.128 2.944.128 4.48 0 1.536-.085 3.072-.256 4.608zm-34.432-27.136c.939-.427 1.621-1.024 2.048-1.792a8.278 8.278 0 00.896-2.56c.085-.256.128-.469.128-.64.085-.256.128-.512.128-.768.085-.683.128-1.835.128-3.456 0-1.707-.043-2.859-.128-3.456a1.43 1.43 0 00-.128-.64v-.768a9.446 9.446 0 00-.768-2.176c-.341-.768-.853-1.323-1.536-1.664-.512-.256-1.109-.341-1.792-.256-.597.085-1.195.128-1.792.128a9.364 9.364 0 01-1.536-.128 4.658 4.658 0 00-1.536 0c-1.024.171-1.792.597-2.304 1.28l-.384.64c-.171.427-.341.939-.512 1.536a10.03 10.03 0 01-.384 1.536c0 .256-.043.512-.128.768v.768c0 .512-.043.896-.128 1.152v2.048c0 .683.043 1.237.128 1.664.085.853.171 1.664.256 2.432.171.768.427 1.451.768 2.048l.256.512c.171.171.299.341.384.512.597.768 1.323 1.28 2.176 1.536a7.24 7.24 0 001.28.384h1.408l1.408-.128a13.285 13.285 0 001.664-.512zm120.706-36.224c-.085.341-.213.64-.384.896a6.91 6.91 0 01-.384.896c-.085.085-.128.171-.128.256 0 .085-.043.171-.128.256l-1.536 3.328-3.072 7.168a50.884 50.884 0 01-1.152 3.328l-1.28 3.072c-.683 1.621-1.28 2.816-1.792 3.584l-.896 1.92a299.278 299.278 0 01-4.096 10.88c-1.28 3.413-2.432 5.632-3.456 6.656l-.384 1.024a75.576 75.576 0 01-1.92 5.76c-.597 1.707-1.237 2.987-1.92 3.84-.171.341-.256.555-.256.64l-1.024 2.816a33.507 33.507 0 01-1.152 2.56l-1.536 4.096a30.254 30.254 0 01-1.664 3.712c-.171.341-.256.555-.256.64l-.768 1.536c-.853 2.133-1.664 3.925-2.432 5.376-.768 1.536-1.365 2.603-1.792 3.2-.341.683-.64 1.408-.896 2.176-.085.085-.128.171-.128.256 0 .085-.043.171-.128.256-.171.512-.341.896-.512 1.152-.085.341-.171.64-.256.896a3.206 3.206 0 01-.384.768 9.583 9.583 0 01-1.024 1.792c-.512.512-.896.853-1.152 1.024a11.775 11.775 0 00-.64 1.536 9.458 9.458 0 01-.384 1.664l-1.536 4.48c-.085.171-.171.469-.256.896-.085.427-.171.555-.256.384a19.41 19.41 0 01-.256-3.2 19.41 19.41 0 00-.256-3.2l-2.56 1.536a6.737 6.737 0 01-2.56 1.024c-.597.085-1.109-.043-1.536-.384l-1.024-1.024a5.4 5.4 0 01-1.024-1.408l-.256-.384h-.256a6.945 6.945 0 00-.256 1.92c.085.683 0 1.365-.256 2.048-.085.171-.171.043-.256-.384a3.983 3.983 0 00-.256-.768l-.384-2.56c-.256.768-.64 1.323-1.152 1.664-.171.171-.341.256-.512.256l-.256 1.28c0 .512-.085.981-.256 1.408-.085.085-.213 0-.384-.256a1.14 1.14 0 01-.128-.512l-.256-1.28c0-.427-.085-.811-.256-1.152l-.64-.64a4.211 4.211 0 01-.512-.64l-.64-.64c0 .341-.085.555-.256.64 0 .085-.341-.213-1.024-.896 0 .085-.043.128-.128.128v.128a56.062 56.062 0 00-.128 3.712c0 1.28-.085 2.56-.256 3.84a4.224 4.224 0 00-.128 1.024c0 .427-.128.768-.384 1.024-.085.085-.213 0-.384-.256a4.986 4.986 0 00-.256-.64l-.256-2.048-.256-1.792c-.085-.597-.043-1.451.128-2.56.171-1.109.043-2.005-.384-2.688l-.256-.256-.256-.256c-.085 0-.171-.043-.256-.128h-.384c-.512-.085-.853-.213-1.024-.384a2.294 2.294 0 01-.64-.64c-.171-.171-.341-.427-.512-.768 0-.085-.043-.171-.128-.256v-1.024c0-.341.043-.597.128-.768 0-.256.043-.427.128-.512l.512-1.536a8.99 8.99 0 00.64-1.28l.256-.64c.085-.171.128-.299.128-.384l.256-.256 2.304-5.76c.427-1.195.853-2.347 1.28-3.456.512-1.109.981-2.133 1.408-3.072l.512-1.28c.256-.427.469-.811.64-1.152l.256-.768 1.28-3.2v-.128c.085 0 .128-.043.128-.128l.512-1.152-.384-.896-.256-.512c-.597-.683-1.451-2.261-2.56-4.736a207.35 207.35 0 01-3.584-8.576 53.242 53.242 0 01-1.024-2.176c-.341-.768-.725-1.621-1.152-2.56-.597-.939-1.195-2.304-1.792-4.096a347.495 347.495 0 00-1.664-5.632l-7.168-16.896a44.597 44.597 0 00-.768-1.92l-.768-1.792a421.519 421.519 0 01-3.328-7.808c-.085-.085-.171-.341-.256-.768a2.848 2.848 0 01-.128-.896c0-.171.043-.299.128-.384 0-.427.128-.811.384-1.152.171-.256.384-.469.64-.64.512-.512 1.109-.811 1.792-.896a6.124 6.124 0 012.176-.128c.853.085 1.579.128 2.176.128h16.896c.341 0 .725.043 1.152.128h.768l.768.384c.427.085.768.299 1.024.64a5.381 5.381 0 011.408 2.432c.256.939.469 1.749.64 2.432.341.768.64 1.579.896 2.432a90.05 90.05 0 011.024 2.688c.171.427.341.939.512 1.536.256.512.469 1.067.64 1.664l1.024 2.944v.128l.512 1.28c0 .085.085.299.256.64l1.28 3.84 1.536 3.84 1.152 3.328v.256a.868.868 0 01.256.64c.171.085.213.171.128.256-.085.085.043.171.384.256.085-.085.128-.171.128-.256l.384-.768.384-1.28c.085-.171.128-.299.128-.384 0-.085.043-.171.128-.256l.384-1.024v-.128l1.92-5.12c.171-.341.256-.555.256-.64a54.462 54.462 0 011.408-3.968c.512-1.28.981-2.475 1.408-3.584.085-.085.128-.171.128-.256 0-.085.043-.171.128-.256l.64-1.664c.256-.853.512-1.664.768-2.432.341-.768.64-1.579.896-2.432l.384-.896.256-.768.256-.768c.256-.683.555-1.365.896-2.048a5.346 5.346 0 011.408-1.92c.939-.683 2.176-1.024 3.712-1.024.427 0 .896.043 1.408.128H776.571c.683 0 1.195.128 1.536.384.171.085.299.171.384.256l.256.256c.512.512.768 1.109.768 1.792v.896l-.128.128v.256l-.128.512zm81.375 0c-.085.341-.213.64-.384.896a6.91 6.91 0 01-.384.896c-.085.085-.128.171-.128.256 0 .085-.043.171-.128.256l-1.536 3.328-3.072 7.168a50.884 50.884 0 01-1.152 3.328l-1.28 3.072c-.683 1.621-1.28 2.816-1.792 3.584l-.896 1.92a299.278 299.278 0 01-4.096 10.88c-1.28 3.413-2.432 5.632-3.456 6.656l-.384 1.024a75.576 75.576 0 01-1.92 5.76c-.597 1.707-1.237 2.987-1.92 3.84-.171.341-.256.555-.256.64l-1.024 2.816a33.507 33.507 0 01-1.152 2.56l-1.536 4.096a30.254 30.254 0 01-1.664 3.712c-.171.341-.256.555-.256.64l-.768 1.536c-.853 2.133-1.664 3.925-2.432 5.376-.768 1.536-1.365 2.603-1.792 3.2-.341.683-.64 1.408-.896 2.176-.085.085-.128.171-.128.256 0 .085-.043.171-.128.256-.171.512-.341.896-.512 1.152-.085.341-.171.64-.256.896a3.206 3.206 0 01-.384.768 9.583 9.583 0 01-1.024 1.792c-.512.512-.896.853-1.152 1.024a11.775 11.775 0 00-.64 1.536 9.458 9.458 0 01-.384 1.664l-1.536 4.48c-.085.171-.171.469-.256.896-.085.427-.171.555-.256.384a19.41 19.41 0 01-.256-3.2 19.41 19.41 0 00-.256-3.2l-2.56 1.536a6.737 6.737 0 01-2.56 1.024c-.597.085-1.109-.043-1.536-.384l-1.024-1.024a5.4 5.4 0 01-1.024-1.408l-.256-.384h-.256a6.945 6.945 0 00-.256 1.92c.085.683 0 1.365-.256 2.048-.085.171-.171.043-.256-.384a3.983 3.983 0 00-.256-.768l-.384-2.56c-.256.768-.64 1.323-1.152 1.664-.171.171-.341.256-.512.256l-.256 1.28c0 .512-.085.981-.256 1.408-.085.085-.213 0-.384-.256a1.14 1.14 0 01-.128-.512l-.256-1.28c0-.427-.085-.811-.256-1.152l-.64-.64a4.211 4.211 0 01-.512-.64l-.64-.64c0 .341-.085.555-.256.64 0 .085-.341-.213-1.024-.896 0 .085-.043.128-.128.128v.128a56.062 56.062 0 00-.128 3.712c0 1.28-.085 2.56-.256 3.84a4.224 4.224 0 00-.128 1.024c0 .427-.128.768-.384 1.024-.085.085-.213 0-.384-.256a4.986 4.986 0 00-.256-.64l-.256-2.048-.256-1.792c-.085-.597-.043-1.451.128-2.56.171-1.109.043-2.005-.384-2.688l-.256-.256-.256-.256c-.085 0-.171-.043-.256-.128h-.384c-.512-.085-.853-.213-1.024-.384a2.294 2.294 0 01-.64-.64c-.171-.171-.341-.427-.512-.768 0-.085-.043-.171-.128-.256v-1.024c0-.341.043-.597.128-.768 0-.256.043-.427.128-.512l.512-1.536a8.99 8.99 0 00.64-1.28l.256-.64c.085-.171.128-.299.128-.384l.256-.256 2.304-5.76c.427-1.195.853-2.347 1.28-3.456.512-1.109.981-2.133 1.408-3.072l.512-1.28c.256-.427.469-.811.64-1.152l.256-.768 1.28-3.2v-.128c.085 0 .128-.043.128-.128l.512-1.152-.384-.896-.256-.512c-.597-.683-1.451-2.261-2.56-4.736a207.35 207.35 0 01-3.584-8.576 53.242 53.242 0 01-1.024-2.176c-.341-.768-.725-1.621-1.152-2.56-.597-.939-1.195-2.304-1.792-4.096a347.495 347.495 0 00-1.664-5.632l-7.168-16.896a44.597 44.597 0 00-.768-1.92l-.768-1.792a421.519 421.519 0 01-3.328-7.808c-.085-.085-.171-.341-.256-.768a2.848 2.848 0 01-.128-.896c0-.171.043-.299.128-.384 0-.427.128-.811.384-1.152.171-.256.384-.469.64-.64.512-.512 1.109-.811 1.792-.896a6.124 6.124 0 012.176-.128c.853.085 1.579.128 2.176.128h16.896c.341 0 .725.043 1.152.128h.768l.768.384c.427.085.768.299 1.024.64a5.381 5.381 0 011.408 2.432c.256.939.469 1.749.64 2.432.341.768.64 1.579.896 2.432a90.05 90.05 0 011.024 2.688c.171.427.341.939.512 1.536.256.512.469 1.067.64 1.664l1.024 2.944v.128l.512 1.28c0 .085.085.299.256.64l1.28 3.84 1.536 3.84 1.152 3.328v.256a.868.868 0 01.256.64c.171.085.213.171.128.256-.085.085.043.171.384.256.085-.085.128-.171.128-.256l.384-.768.384-1.28c.085-.171.128-.299.128-.384 0-.085.043-.171.128-.256l.384-1.024v-.128l1.92-5.12c.171-.341.256-.555.256-.64a54.462 54.462 0 011.408-3.968c.512-1.28.981-2.475 1.408-3.584.085-.085.128-.171.128-.256 0-.085.043-.171.128-.256l.64-1.664c.256-.853.512-1.664.768-2.432.341-.768.64-1.579.896-2.432l.384-.896.256-.768.256-.768c.256-.683.555-1.365.896-2.048a5.346 5.346 0 011.408-1.92c.939-.683 2.176-1.024 3.712-1.024.427 0 .896.043 1.408.128H857.946c.683 0 1.195.128 1.536.384.171.085.299.171.384.256l.256.256c.512.512.768 1.109.768 1.792v.896l-.128.128v.256l-.128.512z" fill="#000"/><path d="M433.708 348.712l4.476 8.606 4.476 8.606 4.324-7.652 4.17-7.571-4.476-8.605-4.476-8.606-8.494 15.222zM373.117 358.617l-4.581-8.809 1.335-2.424-2.987-5.743-12.917 6.718 8.952 17.212 10.874-5.655-.676-1.299zM362.919 365.571l-8.952-17.212-6.458 3.359-6.458 3.36 8.952 17.211 6.458-3.359 6.458-3.359z" fill="#00C4FD"/><path d="M372.756 342.146l4.221-7.662-2.572-4.946-7.521 12.103 2.987 5.743 2.885-5.238zM382.846 314.215l-4.221 7.662-4.22 7.661 2.572 4.946 4.22-7.662 4.22-7.662-2.571-4.945z" fill="#00C4FD"/><path d="M391.286 298.891l-8.44 15.324 2.571 4.945 4.221-7.662 4.22-7.662-.053-.102 4.221-7.661 2.858-1.487-3.562-6.85-1.968 3.572-4.068 7.583zM438.209 373.705l4.451-7.781-4.476-8.606-4.476-8.606-4.451 7.782 8.952 17.211z" fill="#00C4FD"/><path d="M425.446 380.344l12.763-6.639-8.952-17.211-12.71 6.74 8.899 17.11zM454.592 302.135l-8.441 15.324 3.484 6.698 5.468 10.514 4.297-7.702 4.197-7.52-4.476-8.606-4.529-8.708z" fill="#00C4FD"/><path d="M373.894 297.003l-8.441 15.324m8.441-15.324l8.696.944 8.696.944m-17.392-1.888l-8.697-.944-8.696-.943m17.393 1.887l2.033-3.791 12.698-6.42 8.697.944m-31.869 24.591l-17.393-1.887m17.393 1.887l17.393 1.888m-17.393-1.888l-8.441 15.324m-8.952-17.211l8.441-15.324m-8.441 15.324l8.952 17.211m-8.952-17.211l-17.393-1.888m8.441-15.324l-8.441 15.324m8.441-15.324l8.696.944 8.697.944m-17.393-1.888l2.634-4.611 4.221-7.662m10.538 14.161l2.634-4.612-4.545-8.737-8.696-.944m11.118 46.828l17.393 1.887m-17.393-1.887l-17.393-1.888-8.952-17.211m26.345 19.099l-7.52 12.103m33.354-25.539l8.44-15.324m-8.44 15.324l-4.221 7.662-4.22 7.661m8.441-15.323l2.571 4.945m-11.012 10.378l2.572 4.946m-2.572-4.946l-7.521 12.103m24.402-42.75l4.068-7.583 1.968-3.572m0 0l3.562 6.85m-34 47.055l-8.696-.944-8.696-.943m17.392 1.887l-12.917 6.718m12.917-6.718l2.987 5.743m-20.379-7.63l-8.644-.843m70.35-33.289l8.723.995 8.67.893m-17.393-1.888l4.22-7.662 4.221-7.662m-8.441 15.324l4.476 8.606 4.476 8.606m-8.952-17.212l-8.388 15.426m8.388-15.426l-17.34-1.786m26.292 18.998l8.696.943 8.697.944-4.476-8.606m-12.917 6.719l.053.101-4.221 7.662-4.22 7.662m-4.22 7.662l8.696.944 8.696.944m-17.392-1.888l-8.286-.899m8.286.899l4.22-7.662m-39.006 3.887l4.221-7.662m-4.221 7.662l17.393 1.887m-17.393-1.887l-2.885 5.238m20.278-3.351l9.107.989m-9.107-.989l4.22-7.662m-4.22 7.662l-8.236 15.347m0 0l-8.796-.763m8.796.763l8.491.921m29.235-70.003l8.696.944 8.697.944m-17.393-1.888l-8.696-.944-10.059 5.232m27.707 12.924l8.441-15.324m-8.441 15.324l4.476 8.605m3.965-23.929l13.006 1.384 4.554 8.565m-25.948 5.476l8.722.995-4.142 7.622 12.927 1.231m-29.657 45.673l-8.67-.893m8.67.893l.053.102m-.053-.102l8.952 17.212m0 0l-8.697-.944m8.697.944l12.763-6.639m-12.763 6.639l-8.899-17.11m12.71-6.74l8.952 17.211m-8.952-17.211l4.451-7.782m-4.451 7.782l-12.71 6.74m-8.723-.995l-8.723-.994-8.697-.944m17.42 1.938l8.925 17.161m-8.925-17.161l8.491-15.414 8.723.994m-8.289 31.581l-8.696-.944-8.697-.943m21.002-38.129l8.283.899-3.603 7.536m-4.68-8.435l4.398-7.883 8.697.943 8.696.944m-21.791 5.996l4.68 8.435m13.171 25.886l4.451-7.781m0 0l-4.476-8.606-4.476-8.606m8.952 17.212l4.324-7.652 4.17-7.571-4.476-8.605-4.476-8.606-8.494 15.222m0 0l-8.67-.893m17.111-14.431l12.954 1.283m-12.954-1.283l-9.082-17.273m13.084 1.344l8.441-15.324m-8.441 15.324l3.484 6.698 5.468 10.514m0 0l4.297-7.702 4.197-7.52-4.476-8.606-4.529-8.708m-81.475 56.482l-4.581-8.809 1.335-2.424m3.246 11.233l8.846 17.008 8.697.944 8.696.944m-26.239-18.896l.676 1.299-10.874 5.655m36.337-20.549l-8.852 15.279m8.852-15.279l-4.887-8.651m4.987 41.142l-8.952-17.212m-13.427-25.817l4.22-7.662 4.22-7.662m-8.44 15.324l17.392 1.887m0 0l4.221-7.662 4.22-7.661m-17.393-1.888l4.221-7.662 4.22-7.662m-8.441 15.324l8.697.944 8.696.944m0 0l8.952 17.211m-17.904-34.423l-.053-.102 4.221-7.661 2.858-1.487m-7.026 9.25l-2.492-4.793m-50.315 56.035l-8.697-.944-8.657-.868m17.354 1.812l6.458-3.36 6.458-3.359m-12.916 6.719l8.952 17.211m3.964-23.93l8.952 17.212m0 0l-6.458 3.359-6.458 3.359m0 0l-8.697-.944-8.657-.867m-17.864-34.347l-4.221 7.662 4.476 8.606m-.255-16.268l8.697.944 8.656.867m-17.353-1.811l6.331-11.493 4.348.472 2.238 4.303 13.146 9.498m0 0l-.053-.101-8.657-.868m-17.098 14.457l8.953 17.211m-8.953-17.211l4.476 8.606 4.477 8.605m-8.953-17.211l8.657.867m.296 16.344l8.656.868m-8.952-17.212l8.441-15.324m-8.441 15.324l8.952 17.212" stroke="#000" stroke-width="2"/></g><defs><clipPath id="prefix__clip0_401_2"><path fill="#fff" transform="translate(196 121)" d="M0 0h683v388H0z"/></clipPath></defs></svg>